<?xml version="1.0" encoding="utf-8"?>
<!DOCTYPE svg PUBLIC "-//W3C//DTD SVG 20010904//EN" "http://www.w3.org/TR/2001/REC-SVG-20010904/DTD/svg10.dtd">
<svg version="1.0" xmlns="http://www.w3.org/2000/svg" width="579px" height="149px" viewBox="0 0 579 149" preserveAspectRatio="xMidYMid meet">
 <g fill="#ffffff">
  <path d="M0 74.50 l0 -74.50 289.50 0 289.50 0 0 74.50 0 74.50 -289.50 0 -289.50 0 0 -74.50z m409.50 61.50 c0.50 -0.25 1.55 -2.10 2.30 -4.10 0.75 -2 8.25 -20.75 16.60 -41.65 8.35 -20.90 15.80 -39.45 16.50 -41.20 1.20 -3.10 1.20 -3.20 0.35 -3.85 -0.70 -0.50 -2.85 -0.70 -7.80 -0.70 -6.45 0 -7 0.10 -8.20 1.15 -1.25 1.10 -3.15 6.25 -13.20 35.95 l-2.80 8.40 -1.80 0 -1.75 0 -2.60 -7.35 c-2.65 -7.75 -7.10 -20.35 -10.55 -30.15 -2.80 -7.85 -3 -8 -10.35 -8 -3.90 0 -6.30 0.25 -7.45 0.75 l-1.75 0.70 0.95 2.40 c0.50 1.30 2 5 3.30 8.15 1.30 3.15 4.35 10.60 6.75 16.50 2.45 5.90 6.60 16.05 9.25 22.50 2.70 6.45 5.10 12.60 5.40 13.60 0.70 2.35 0.55 2.90 -4.35 15.40 -2.10 5.35 -3.80 10.05 -3.80 10.40 0 0.35 0.50 0.85 1.15 1.10 1.50 0.60 12.70 0.60 13.85 0z m-256.25 -26.30 c1.65 -0.40 4.90 -1.65 7.25 -2.80 3.45 -1.65 5.10 -2.90 8.50 -6.35 6.90 -6.95 10.10 -14.30 10.10 -23.30 0.05 -8.90 -3.15 -16.40 -9.75 -23 -6.10 -6 -13.15 -9.45 -21.65 -10.45 -2.85 -0.35 -9.50 0.75 -13.35 2.20 -7.50 2.85 -14.65 9.30 -18.25 16.50 -2.70 5.50 -3.65 9.20 -3.65 14.75 0 8.85 3.25 16.50 9.75 22.95 6.20 6.20 12.40 9.30 20.15 10.25 4.30 0.50 6.40 0.35 10.90 -0.75z m330.10 0.80 c12.60 -1.60 21 -9.15 21.55 -19.40 0.45 -8.20 -3.45 -14.40 -11.75 -18.55 -4.10 -2.05 -8.60 -3.70 -12.90 -4.75 -4.80 -1.15 -5.80 -2.05 -6.10 -5.15 -0.20 -2.10 -0.10 -2.70 0.95 -3.85 1.05 -1.25 1.65 -1.45 4.75 -1.65 4.60 -0.35 8.15 0.55 10.95 2.65 l2.25 1.75 4.20 -3.90 c2.35 -2.10 4.25 -4.05 4.25 -4.20 0 -0.80 -6.90 -6.20 -9.40 -7.35 -8.10 -3.70 -17 -3.45 -24.60 0.70 -3.85 2.10 -5.10 3.20 -7.05 6.15 -4.40 6.45 -3.50 15.20 2.15 21.35 3.70 4 7.65 6.15 16.70 9 7.70 2.45 8.20 2.85 8.20 7.20 0 2.90 -0.15 3.60 -1.10 4.45 -1.40 1.30 -3.65 1.80 -8.65 1.80 -3.40 0 -4.50 -0.25 -7.25 -1.55 -1.80 -0.85 -4.10 -2.25 -5.10 -3.15 -1 -0.85 -2 -1.55 -2.25 -1.55 -0.25 0 -2.20 1.80 -4.35 4 -4.40 4.50 -4.40 4.15 -0.25 8.35 3.30 3.30 9.20 6.40 14.20 7.35 4.40 0.90 5.60 0.90 10.60 0.30z m-405.85 -1.35 c19.10 -6.30 28.20 -29.75 18.60 -47.75 -5.60 -10.50 -16.30 -17.35 -27.35 -17.50 -4.15 -0.10 -7.90 1.70 -12.30 5.95 -2.60 2.50 -3.60 3.15 -4.85 3.15 l-1.60 0 0 -12.95 c0 -16.30 0.55 -15.25 -7.75 -15.45 -6.45 -0.20 -8.55 0.30 -9.30 2.25 -0.25 0.70 -0.45 18 -0.45 40.65 l0 39.45 1.15 1.30 c0.85 1 1.75 1.30 4.15 1.55 1.70 0.20 4.35 0.15 5.90 0 2.50 -0.35 3 -0.60 3.85 -1.95 0.55 -0.90 1.25 -2.55 1.55 -3.70 0.60 -2.10 0.65 -2.15 2.65 -2.15 1.60 0 2.35 0.30 3.30 1.30 1.55 1.70 6.85 5.50 9 6.45 2.20 1 9.60 0.70 13.45 -0.60z m154.10 0.80 c3.55 -0.70 11.10 -4.40 14 -6.85 8.20 -6.85 12.60 -15.95 12.60 -25.85 -0.05 -7.80 -2.45 -14.25 -7.70 -20.90 -6.70 -8.35 -20 -13.95 -29.25 -12.35 -14.15 2.50 -23.95 10.85 -28.45 24.20 -2.05 6 -1.85 12.35 0.50 19.45 3.60 10.75 14.10 20.15 24.95 22.35 3 0.60 10.35 0.55 13.35 -0.05z m57.20 -1.60 c1.15 -1.40 1.20 -1.60 1.20 -10.75 l0 -9.40 2.90 -2.85 c2.40 -2.40 3.15 -2.85 4.60 -2.85 1.65 0.05 2 0.35 5.15 4.90 10.10 14.35 14.45 20.40 15.35 21.35 0.95 0.95 1.65 1 9.75 1 5.15 0 8.90 -0.20 9.20 -0.50 0.30 -0.35 -1.30 -2.75 -4.65 -7 -21.60 -27.45 -23.30 -29.75 -23.30 -31.50 0 -1.50 1.10 -2.80 11 -13.25 6.05 -6.35 11 -11.75 11 -11.95 0 -0.80 -2.25 -1.05 -9.10 -1.05 -3.90 0 -7.35 0.25 -8.05 0.55 -0.65 0.30 -5.55 5.35 -10.85 11.25 -9.15 10.20 -9.75 10.70 -11.45 10.70 l-1.80 0 0.15 -19.90 c0.20 -24.70 1 -22.60 -8.40 -22.60 -7.80 0 -8.85 0.35 -9.25 3.20 -0.50 3.25 -0.05 78.95 0.45 80 0.85 1.75 3.20 2.30 9.20 2.20 5.55 -0.15 5.75 -0.20 6.90 -1.55z m75.55 -0.05 l1.15 -1.35 0 -40 0 -40 -1.25 -1.20 c-1.15 -1.20 -1.50 -1.25 -7.40 -1.25 -5.40 0 -6.40 0.15 -7.40 0.95 l-1.20 0.95 -0.15 39.90 c-0.10 29.15 0.05 40.30 0.45 41.30 0.80 1.95 2.70 2.40 9.15 2.20 5.25 -0.15 5.50 -0.20 6.65 -1.50z m175.55 0.65 c2 -1.25 2.20 -3.45 2.05 -25.40 l-0.10 -20.80 5.30 -0.25 c6.95 -0.35 7.05 -0.40 7.25 -7.05 0.30 -8.10 -0.55 -8.95 -8.75 -8.95 l-4.10 0 0.30 -6.65 c0.30 -7.20 -0.05 -11.75 -1.05 -13.15 -0.60 -0.80 -1.05 -0.70 -7.50 1.55 -9.80 3.45 -9.30 2.85 -9.30 11.20 l0 6.90 -3 0.30 c-1.70 0.15 -3.35 0.55 -3.75 0.85 -2.30 1.90 -2.25 12.50 0.05 14.25 0.55 0.40 2.15 0.70 3.85 0.75 l2.85 0 0 21.95 c0 12.85 0.20 22.50 0.50 23.25 0.30 0.80 1.10 1.45 2.10 1.75 2.40 0.75 11.90 0.40 13.30 -0.50z"/>
  <path d="M140.35 94.95 c-5.90 -1.40 -9.95 -5.85 -11.30 -12.45 -0.75 -3.70 -0.05 -11.50 1.30 -14.55 2.05 -4.65 6.05 -7.85 11.05 -8.90 8.20 -1.70 15.15 1.10 18.55 7.40 1.40 2.65 1.70 3.90 2.10 8.20 0.50 5.75 0 9.25 -1.80 12.85 -1.65 3.25 -5.10 6.25 -8.30 7.20 -2.85 0.85 -8.55 1 -11.60 0.25z"/>
  <path d="M61.35 94.95 c-4.75 -1.10 -8.85 -4.50 -11.05 -9.10 -1.65 -3.50 -2.10 -7.50 -1.35 -12.30 1 -6.45 4.25 -10.80 10 -13.45 2.40 -1.15 3.50 -1.30 7.80 -1.35 4.15 0 5.40 0.20 7.50 1.15 5.15 2.35 8.30 6.85 9.30 13.20 1.70 11.10 -2.70 19.70 -11.15 21.80 -2.70 0.70 -8.25 0.70 -11.05 0.05z"/>
  <path d="M219 94.85 c-8.15 -2.30 -12.25 -9.90 -11.05 -20.40 0.80 -7.10 3.70 -11.75 8.95 -14.30 2.55 -1.25 3.40 -1.40 7.85 -1.40 4.50 0 5.30 0.15 7.85 1.40 6.50 3.20 9.65 10.50 8.60 19.95 -0.85 7.30 -3.55 11.70 -8.70 14.05 -2.80 1.30 -10.15 1.65 -13.50 0.70z"/>
 </g>
 <g fill="#2475cc">
  <path d="M394.15 137.50 c-2.10 -0.85 -1.95 -2.95 0.80 -9.85 1.35 -3.50 3.40 -8.70 4.50 -11.55 l2.05 -5.15 -1.35 -3.10 c-0.70 -1.70 -3.05 -7.35 -5.15 -12.60 -2.15 -5.20 -5.90 -14.45 -8.35 -20.50 -2.50 -6.05 -6 -14.65 -7.85 -19.10 -1.80 -4.45 -3.30 -8.80 -3.30 -9.65 0 -2.45 2 -3 10.70 -3 9.10 0 8.95 -0.10 11.85 8 3.45 9.80 7.90 22.40 10.55 30.15 1.45 4.05 2.70 7.35 2.85 7.35 0.15 0 1.55 -3.80 3.10 -8.40 10.05 -29.70 11.95 -34.85 13.20 -35.95 1.25 -1.10 1.70 -1.15 9.65 -1.15 11.45 0 11.85 0.30 9.15 7.10 -0.80 2 -8.30 20.75 -16.65 41.65 -8.35 20.90 -15.85 39.65 -16.60 41.65 -0.75 2 -1.80 3.85 -2.30 4.10 -1.15 0.60 -15.35 0.60 -16.85 0z"/>
  <path d="M64.35 111.75 c-2.60 -0.65 -8.20 -4.20 -10.55 -6.70 -0.85 -0.85 -1.75 -1.55 -2.05 -1.55 -0.30 0 -0.80 0.95 -1.15 2.15 -0.30 1.15 -1 2.80 -1.55 3.70 -0.85 1.35 -1.35 1.60 -3.85 1.95 -1.55 0.15 -4.85 0.20 -7.35 0.05 -4.15 -0.20 -4.65 -0.35 -5.70 -1.55 l-1.15 -1.35 0 -40.95 c0 -23.55 0.20 -41.45 0.45 -42.15 0.80 -2.05 2.75 -2.45 10.80 -2.25 10.05 0.20 9.25 -1.10 9.25 15.55 l0 13 3.40 -3.25 c1.85 -1.80 4.65 -3.85 6.35 -4.70 2.70 -1.30 3.50 -1.45 7.50 -1.40 18.95 0.20 32.90 15.05 32.90 34.95 -0.05 17.45 -10.85 31.30 -26.90 34.45 -3.20 0.65 -8.10 0.65 -10.40 0.05z m6.55 -18.35 c6 -1.45 10.65 -7.10 11.30 -13.65 1.10 -10.95 -5.70 -19.45 -15.50 -19.40 -8.25 0.05 -14.85 5.85 -16.15 14.15 -0.65 4.05 -0.30 6.50 1.30 9.95 3.40 7.20 11.30 10.90 19.05 8.95z"/>
  <path d="M139.25 111.75 c-13.15 -2.40 -24.10 -12.55 -27.55 -25.50 -1.25 -4.80 -1.35 -12.25 -0.20 -17 4.80 -19.75 24.30 -31.10 44 -25.65 11.35 3.15 20.50 12.15 24.10 23.80 1.50 4.90 1.70 12.80 0.40 17.90 -1.75 6.85 -4.55 11.85 -9.45 16.75 -6.65 6.65 -14.05 9.90 -23.30 10.15 -2.45 0.10 -6.05 -0.10 -8 -0.45z m11.20 -18.55 c1.70 -0.50 3.45 -1.50 4.90 -2.85 4.10 -3.80 5.65 -8.25 5.10 -15.05 -0.25 -3.40 -0.65 -4.75 -2 -7.30 -6.05 -11.40 -22.30 -9.90 -26.95 2.45 -1.05 2.65 -1.40 9.05 -0.75 11.80 2.15 8.70 10.90 13.60 19.70 10.95z"/>
  <path d="M218.25 111.70 c-6.65 -1.15 -12.10 -3.90 -17.60 -8.90 -7.75 -7 -12.15 -19.35 -10.70 -29.95 1.90 -13.45 10.80 -24.55 22.95 -28.55 5.60 -1.85 9.80 -2.45 14.10 -2.10 14.95 1.30 26.85 10.50 31.35 24.30 1.75 5.25 2 14.15 0.60 19.50 -2.65 10.25 -9.10 18.10 -18.70 22.75 -7 3.40 -14 4.35 -22 2.95z m11.10 -18.45 c6.35 -1.90 10.20 -7.70 10.30 -15.60 0.10 -7.35 -2.90 -13.10 -8.30 -15.85 -5.80 -2.95 -13.45 -1.50 -17.65 3.35 -4 4.65 -5.35 11.60 -3.50 17.95 2.35 8.15 10.80 12.60 19.15 10.15z"/>
  <path d="M471.25 111.75 c-8.35 -1.70 -17.75 -8.60 -17.75 -13.05 0 -1.55 0.50 -2.30 3.40 -5.30 1.85 -1.95 3.95 -3.95 4.70 -4.50 1.55 -1.10 2.40 -0.80 5.40 1.75 0.95 0.80 3.15 2.20 4.95 3 2.65 1.25 3.85 1.55 6.55 1.50 5.40 -0.10 7.50 -1.40 7.50 -4.65 0 -2.65 -1.25 -3.50 -8.20 -5.70 -11.70 -3.70 -17.10 -7.50 -20.15 -14.15 -2.60 -5.60 -2 -14.40 1.30 -19.20 1.95 -2.95 3.20 -4.05 7.05 -6.15 4.10 -2.20 8.90 -3.35 14.50 -3.40 5.30 -0.05 8.65 0.70 13.25 2.85 3.75 1.80 10.25 7.40 10.25 8.80 0 1.15 -9.80 9.95 -11.05 9.95 -0.55 0 -1.95 -0.80 -3.10 -1.75 -4.05 -3.45 -10.85 -4.20 -13.25 -1.45 -2.20 2.50 -0.35 4.65 5.15 6 6.85 1.65 14.40 5 18.05 8 10.10 8.20 9.05 25.60 -2.10 33.20 -6.10 4.25 -17.45 6.05 -26.45 4.25z"/>
  <path d="M273.20 110.80 c-1 -0.45 -1.75 -1.30 -2.10 -2.30 -0.60 -1.70 -0.90 -79.95 -0.30 -82.85 0.45 -2.30 1.80 -2.65 10.70 -2.65 l7.95 0 1 1.35 c1.05 1.30 1.05 1.65 0.95 21.25 -0.10 10.95 0 19.90 0.15 19.90 0.15 0 4.65 -4.80 9.95 -10.70 5.30 -5.90 10.20 -10.95 10.85 -11.25 1.45 -0.65 17.55 -0.75 19.30 -0.10 1.65 0.65 2.05 1.95 1.05 3.45 -0.45 0.65 -5.25 5.90 -10.65 11.55 -5.40 5.65 -10.20 10.80 -10.75 11.40 -0.90 1.10 -0.90 1.15 1.05 3.50 5.90 7.15 26.55 34.05 26.85 34.95 0.15 0.55 0 1.40 -0.40 2 -0.65 0.90 -1.40 0.95 -10.95 0.95 -9.05 0 -10.35 -0.10 -11.20 -0.85 -0.55 -0.50 -3.45 -4.40 -6.45 -8.65 -3 -4.30 -6.85 -9.75 -8.60 -12.15 -1.75 -2.40 -3.35 -4.70 -3.60 -5.10 -0.35 -0.60 -1.05 -0.15 -3.45 2.25 l-3.05 2.95 0 9.40 c0 9.15 0 9.35 -1.20 10.75 -1.20 1.40 -1.20 1.40 -8.40 1.55 -5.30 0.10 -7.55 -0.05 -8.70 -0.60z"/>
  <path d="M349.20 111 c-1 -0.30 -1.80 -1 -2.15 -1.90 -0.40 -1 -0.55 -12.50 -0.45 -42.80 l0.15 -41.40 1.20 -0.95 c1.05 -0.85 2.05 -0.95 8.90 -0.95 7.50 0 7.75 0.05 8.90 1.25 l1.25 1.20 0 41.50 0 41.50 -1.20 1.40 c-1.20 1.35 -1.25 1.40 -8.10 1.50 -3.85 0.05 -7.65 -0.10 -8.50 -0.35z"/>
  <path d="M525.10 110.95 c-1.05 -0.30 -1.80 -0.95 -2.10 -1.75 -0.30 -0.75 -0.50 -10.40 -0.50 -23.25 l0 -21.95 -2.85 0 c-3.55 -0.05 -4.65 -0.80 -5.20 -3.60 -0.55 -3 -0.55 -9.80 0.05 -11.95 0.70 -2.50 1.45 -3 5 -3.30 l3 -0.30 0 -6.85 c0 -6.20 0.10 -6.95 1 -7.75 1.55 -1.40 15.50 -6.20 17.15 -5.90 2.35 0.45 2.60 1.60 2.60 11.50 l0 9.15 4 0 c2.20 0 4.80 0.25 5.80 0.50 2.65 0.75 3.05 2.15 2.85 9.95 -0.20 8.35 -0.10 8.20 -7.20 8.55 l-5.25 0.25 0.05 20.90 c0 12.45 -0.20 21.65 -0.50 22.75 -0.75 2.90 -1.85 3.30 -9.50 3.45 -3.70 0.05 -7.50 -0.10 -8.40 -0.40z"/>
 </g>
</svg>